<svg width="20" height="20" xmlns="http://www.w3.org/2000/svg">
  <path d="M11.6666 8.24967V6.83301C12.1249 6.63856 12.5937 6.49273 13.0728 6.39551C13.552 6.29829 14.0555 6.24967 14.5833 6.24967C14.9444 6.24967 15.2985 6.27745 15.6458 6.33301C15.993 6.38856 16.3333 6.45801 16.6666 6.54134V7.87467C16.3333 7.74967 15.9964 7.65592 15.6562 7.59342C15.3159 7.53092 14.9583 7.49967 14.5833 7.49967C14.0555 7.49967 13.5485 7.56565 13.0624 7.69759C12.5763 7.82954 12.111 8.01356 11.6666 8.24967ZM11.6666 12.833V11.4163C12.1249 11.2219 12.5937 11.0761 13.0728 10.9788C13.552 10.8816 14.0555 10.833 14.5833 10.833C14.9444 10.833 15.2985 10.8608 15.6458 10.9163C15.993 10.9719 16.3333 11.0413 16.6666 11.1247V12.458C16.3333 12.333 15.9964 12.2393 15.6562 12.1768C15.3159 12.1143 14.9583 12.083 14.5833 12.083C14.0555 12.083 13.5485 12.1455 13.0624 12.2705C12.5763 12.3955 12.111 12.583 11.6666 12.833ZM11.6666 10.5413V9.12467C12.1249 8.93023 12.5937 8.7844 13.0728 8.68717C13.552 8.58995 14.0555 8.54134 14.5833 8.54134C14.9444 8.54134 15.2985 8.56912 15.6458 8.62467C15.993 8.68023 16.3333 8.74967 16.6666 8.83301V10.1663C16.3333 10.0413 15.9964 9.94759 15.6562 9.88509C15.3159 9.82259 14.9583 9.79134 14.5833 9.79134C14.0555 9.79134 13.5485 9.85731 13.0624 9.98926C12.5763 10.1212 12.111 10.3052 11.6666 10.5413ZM5.41658 13.333C6.06936 13.333 6.70478 13.4059 7.32283 13.5518C7.94089 13.6976 8.55547 13.9163 9.16658 14.208V5.99967C8.59714 5.66634 7.99297 5.41634 7.35408 5.24967C6.7152 5.08301 6.06936 4.99967 5.41658 4.99967C4.91658 4.99967 4.42006 5.04829 3.927 5.14551C3.43395 5.24273 2.95825 5.38856 2.49992 5.58301V13.833C2.98603 13.6663 3.46867 13.5413 3.94783 13.458C4.427 13.3747 4.91658 13.333 5.41658 13.333ZM10.8333 14.208C11.4444 13.9163 12.0589 13.6976 12.677 13.5518C13.2951 13.4059 13.9305 13.333 14.5833 13.333C15.0833 13.333 15.5728 13.3747 16.052 13.458C16.5312 13.5413 17.0138 13.6663 17.4999 13.833V5.58301C17.0416 5.38856 16.5659 5.24273 16.0728 5.14551C15.5798 5.04829 15.0833 4.99967 14.5833 4.99967C13.9305 4.99967 13.2846 5.08301 12.6458 5.24967C12.0069 5.41634 11.4027 5.66634 10.8333 5.99967V14.208ZM9.99992 16.6663C9.33325 16.1386 8.61103 15.7288 7.83325 15.4372C7.05547 15.1455 6.24992 14.9997 5.41658 14.9997C4.83325 14.9997 4.26033 15.0761 3.69783 15.2288C3.13533 15.3816 2.59714 15.5969 2.08325 15.8747C1.79159 16.0275 1.51034 16.0205 1.2395 15.8538C0.968669 15.6872 0.833252 15.4441 0.833252 15.1247V5.08301C0.833252 4.93023 0.871446 4.7844 0.947835 4.64551C1.02422 4.50662 1.13881 4.40245 1.29159 4.33301C1.93047 3.99967 2.59714 3.74967 3.29159 3.58301C3.98603 3.41634 4.69436 3.33301 5.41658 3.33301C6.22214 3.33301 7.01033 3.43717 7.78117 3.64551C8.552 3.85384 9.29158 4.16634 9.99992 4.58301C10.7083 4.16634 11.4478 3.85384 12.2187 3.64551C12.9895 3.43717 13.7777 3.33301 14.5833 3.33301C15.3055 3.33301 16.0138 3.41634 16.7083 3.58301C17.4027 3.74967 18.0694 3.99967 18.7083 4.33301C18.861 4.40245 18.9756 4.50662 19.052 4.64551C19.1284 4.7844 19.1666 4.93023 19.1666 5.08301V15.1247C19.1666 15.4441 19.0312 15.6872 18.7603 15.8538C18.4895 16.0205 18.2083 16.0275 17.9166 15.8747C17.4027 15.5969 16.8645 15.3816 16.302 15.2288C15.7395 15.0761 15.1666 14.9997 14.5833 14.9997C13.7499 14.9997 12.9444 15.1455 12.1666 15.4372C11.3888 15.7288 10.6666 16.1386 9.99992 16.6663Z" fill="#1155cb"/>
</svg>
