<?xml version="1.0" encoding="UTF-8"?>
<svg width="24px" height="24px" viewBox="0 0 24 24" version="1.1" xmlns="http://www.w3.org/2000/svg" xmlns:xlink="http://www.w3.org/1999/xlink">
    <!-- Generator: Sketch 45.2 (43514) - http://www.bohemiancoding.com/sketch -->
    <title>icn--error</title>
    <desc>Created with Sketch.</desc>
    <defs></defs>
    <g id="Page-1" stroke="none" stroke-width="1" fill="none" fill-rule="evenodd">
        <g id="spacing" transform="translate(-388.000000, -64.000000)" fill="#8C8C8C">
            <g id="table-no-access">
                <g id="comp-no-access" transform="translate(270.000000, 63.000000)">
                    <path d="M130,25 C123.372583,25 118,19.627417 118,13 C118,6.372583 123.372583,1 130,1 C136.627417,1 142,6.372583 142,13 C142,19.627417 136.627417,25 130,25 Z M130,23 C135.522847,23 140,18.5228475 140,13 C140,7.4771525 135.522847,3 130,3 C124.477153,3 120,7.4771525 120,13 C120,18.5228475 124.477153,23 130,23 Z M129.493125,7.00005821 L130.504552,7.00005821 L130.504552,7.00005821 C131.056837,7.00005821 131.504552,7.44777346 131.504552,8.00005821 C131.504552,8.02188214 131.503837,8.04370022 131.50241,8.06547741 L131.109056,14.0654192 C131.074587,14.5911791 130.638086,15 130.111198,15 L129.886479,15 L129.886479,15 C129.35959,15 128.92309,14.5911791 128.888621,14.0654192 L128.495267,8.06547741 L128.495267,8.06547741 C128.459137,7.51437572 128.876604,7.03833036 129.427706,7.00220034 C129.449483,7.00077263 129.471301,7.00005821 129.493125,7.00005821 Z M130,19 C129.171573,19 128.5,18.3284271 128.5,17.5 C128.5,16.6715729 129.171573,16 130,16 C130.828427,16 131.5,16.6715729 131.5,17.5 C131.5,18.3284271 130.828427,19 130,19 Z" id="icn--error"></path>
                </g>
            </g>
        </g>
    </g>
</svg>