<?xml version="1.0" encoding="UTF-8"?>
<svg width="14px" height="16px" viewBox="0 0 14 16" version="1.1" xmlns="http://www.w3.org/2000/svg" xmlns:xlink="http://www.w3.org/1999/xlink">
    <!-- Generator: Sketch 62 (91390) - https://sketch.com -->
    <title>icn-16x--copy</title>
    <desc>Created with Sketch.</desc>
    <g id="Page-1" stroke="none" stroke-width="1" fill="none" fill-rule="evenodd">
        <g id="Artboard" transform="translate(-87.000000, -86.000000)" fill="#8C8C8C">
            <path d="M100.004602,90 C100.554345,90 101,90.455761 101,91.0024733 L101,100.997527 C101,101.551177 100.544336,102 100.004602,102 L91.9953976,102 C91.4456547,102 91,101.544239 91,100.997527 L91,91.0024733 C91,90.4488226 91.4556644,90 91.9953976,90 L100.004602,90 Z M99,92 L93,92 L93,100 L99,100 L99,92 Z M96.0046024,86 C96.5543453,86 97,86.455761 97,87.0024733 L97,87.0024733 L97,88 L89.9953976,88 C89.4556644,88 89,88.4488226 89,89.0024733 L89,89.0024733 L89,98 L87.9953976,98 C87.4456547,98 87,97.544239 87,96.9975267 L87,96.9975267 L87,87.0024733 C87,86.4488226 87.4556644,86 87.9953976,86 L87.9953976,86 Z" id="icn-16x--copy"></path>
        </g>
    </g>
</svg>