<svg width="32px" height="48px" viewBox="0 0 32 48" version="1.1" xmlns="http://www.w3.org/2000/svg" xmlns:xlink="http://www.w3.org/1999/xlink">
    <g id="Page-1" stroke="none" stroke-width="1" fill="none" fill-rule="evenodd">
        <g id="icn-lock-64x">
            <path d="M5,23 L7,23 L7,13 C7,8.02943725 11.0294373,4 16,4 C20.9705627,4 25,8.02943725 25,13 L25,23 L27,23 L27,13 C27,6.92486775 22.0751322,2 16,2 C9.92486775,2 5,6.92486775 5,13 L5,23 Z M9,23 L23,23 L23,13 C23,9.13400675 19.8659932,6 16,6 C12.1340068,6 9,9.13400675 9,13 L9,23 Z M29,23 C30.6568542,23 32,24.3431458 32,26 L32,45 C32,46.6568542 30.6568542,48 29,48 L3,48 C1.34314575,48 0,46.6568542 0,45 L0,26 C0,24.3431458 1.34314575,23 3,23 L3,13 C3,5.82029825 8.82029825,4.79616347e-14 16,4.79616347e-14 C23.1797017,4.79616347e-14 29,5.82029825 29,13 L29,23 Z M3,25 C2.44771525,25 2,25.4477153 2,26 L2,45 C2,45.5522847 2.44771525,46 3,46 L29,46 C29.5522847,46 30,45.5522847 30,45 L30,26 C30,25.4477153 29.5522847,25 29,25 L23,25 L9,25 L3,25 Z" id="Combined-Shape" fill="#B5BBBE"></path>
            <path d="M3,25 L29,25 C29.5522847,25 30,25.4477153 30,26 L30,45 C30,45.5522847 29.5522847,46 29,46 L3,46 C2.44771525,46 2,45.5522847 2,45 L2,26 C2,25.4477153 2.44771525,25 3,25 Z M7,13 L7,23 L5,23 L5,13 C5,6.92486775 9.92486775,2 16,2 C22.0751322,2 27,6.92486775 27,13 L27,23 L25,23 L25,13 C25,8.02943725 20.9705627,4 16,4 C11.0294373,4 7,8.02943725 7,13 Z" id="Combined-Shape" fill="#FFFFFF"></path>
            <path d="M15,35.8292943 C13.8348076,35.4174579 13,34.3062188 13,33 C13,31.3431458 14.3431458,30 16,30 C17.6568542,30 19,31.3431458 19,33 C19,34.3062188 18.1651924,35.4174579 17,35.8292943 L17,39 C17,39.5522847 16.5522847,40 16,40 C15.4477153,40 15,39.5522847 15,39 L15,35.8292943 Z" id="Combined-Shape" fill="#8A9299" fill-rule="nonzero"></path>
        </g>
    </g>
</svg>
