<?xml version="1.0" encoding="UTF-8"?>
<svg width="205px" height="32px" viewBox="0 0 205 32" version="1.1" xmlns="http://www.w3.org/2000/svg" xmlns:xlink="http://www.w3.org/1999/xlink">
    <!-- Generator: Sketch 45.1 (43504) - http://www.bohemiancoding.com/sketch -->
    <title>logo--kong-enterprise</title>
    <desc>Created with Sketch.</desc>
    <defs></defs>
    <g id="Page-1" stroke="none" stroke-width="1" fill="none" fill-rule="evenodd">
        <g id="Desktop-HD" transform="translate(-64.000000, -19.000000)">
            <g id="logo--kong-enterprise" transform="translate(64.000000, 19.000000)">
                <path d="M115.214844,15.7490234 L108.049805,15.7490234 L108.049805,21.3457031 L116.310547,21.3457031 L116.310547,23 L105.933594,23 L105.933594,7.359375 L116.192383,7.359375 L116.192383,9.02441406 L108.049805,9.02441406 L108.049805,14.0839844 L115.214844,14.0839844 L115.214844,15.7490234 Z M120.285156,11.3769531 L120.435547,13.1064453 C120.822268,12.4905568 121.307452,12.0125343 121.891113,11.6723633 C122.474775,11.3321923 123.138994,11.1621094 123.883789,11.1621094 C125.137051,11.1621094 126.107418,11.5291304 126.794922,12.2631836 C127.482425,12.9972367 127.826172,14.1305262 127.826172,15.6630859 L127.826172,23 L125.709961,23 L125.709961,15.7060547 C125.709961,14.681961 125.507652,13.9550803 125.103027,13.5253906 C124.698403,13.095701 124.080733,12.8808594 123.25,12.8808594 C122.641273,12.8808594 122.102379,13.0276678 121.633301,13.3212891 C121.164223,13.6149103 120.79004,14.015948 120.510742,14.5244141 L120.510742,23 L118.394531,23 L118.394531,11.3769531 L120.285156,11.3769531 Z M133.691406,8.57324219 L133.691406,11.3769531 L135.893555,11.3769531 L135.893555,12.9453125 L133.691406,12.9453125 L133.691406,20.0029297 C133.691406,20.5472032 133.804198,20.9303374 134.029785,21.1523438 C134.255372,21.3743501 134.55436,21.4853516 134.926758,21.4853516 C135.048503,21.4853516 135.182779,21.4710288 135.32959,21.4423828 C135.4764,21.4137368 135.607096,21.3779299 135.72168,21.3349609 L136.000977,22.7851562 C135.843424,22.9140631 135.612469,23.0196936 135.308105,23.1020508 C135.003742,23.184408 134.697593,23.2255859 134.389648,23.2255859 C133.530269,23.2255859 132.846357,22.9659857 132.337891,22.4467773 C131.829425,21.927569 131.575195,21.1129613 131.575195,20.0029297 L131.575195,12.9453125 L129.727539,12.9453125 L129.727539,11.3769531 L131.575195,11.3769531 L131.575195,8.57324219 L133.691406,8.57324219 Z M143.327148,23.2255859 C141.708651,23.2255859 140.421391,22.6866916 139.465332,21.6088867 C138.509273,20.5310819 138.03125,19.1328211 138.03125,17.4140625 L138.03125,16.9414062 C138.03125,15.2871011 138.523595,13.9103245 139.508301,12.8110352 C140.493006,11.7117458 141.658522,11.1621094 143.004883,11.1621094 C144.57325,11.1621094 145.75846,11.6347609 146.560547,12.5800781 C147.362634,13.5253954 147.763672,14.7857994 147.763672,16.3613281 L147.763672,17.6826172 L140.222656,17.6826172 L140.19043,17.7363281 C140.211914,18.8535212 140.494789,19.7719691 141.039062,20.4916992 C141.583336,21.2114294 142.346024,21.5712891 143.327148,21.5712891 C144.043298,21.5712891 144.67171,21.4692393 145.212402,21.2651367 C145.753095,21.0610341 146.220376,20.7799497 146.614258,20.421875 L147.441406,21.796875 C147.02604,22.2050802 146.478194,22.545246 145.797852,22.8173828 C145.11751,23.0895196 144.29395,23.2255859 143.327148,23.2255859 Z M143.004883,12.8271484 C142.295895,12.8271484 141.690758,13.1261363 141.189453,13.7241211 C140.688149,14.3221059 140.380209,15.0722611 140.265625,15.9746094 L140.287109,16.0283203 L145.647461,16.0283203 L145.647461,15.7490234 C145.647461,14.9182901 145.425458,14.2236356 144.981445,13.6650391 C144.537433,13.1064425 143.878585,12.8271484 143.004883,12.8271484 Z M155.637695,13.2460938 L154.552734,13.1816406 C153.994138,13.1816406 153.523277,13.3141263 153.140137,13.5791016 C152.756997,13.8440768 152.46159,14.216469 152.253906,14.6962891 L152.253906,23 L150.137695,23 L150.137695,11.3769531 L152.02832,11.3769531 L152.232422,13.0742188 C152.561851,12.4726532 152.968259,12.0035824 153.45166,11.6669922 C153.935061,11.330402 154.491859,11.1621094 155.12207,11.1621094 C155.279623,11.1621094 155.430012,11.1746418 155.573242,11.199707 C155.716472,11.2247723 155.834635,11.2516275 155.927734,11.2802734 L155.637695,13.2460938 Z M167.583008,17.6289062 C167.583008,19.3046959 167.18197,20.6564076 166.379883,21.684082 C165.577795,22.7117564 164.471361,23.2255859 163.060547,23.2255859 C162.344397,23.2255859 161.715986,23.1056327 161.175293,22.8657227 C160.6346,22.6258126 160.174481,22.2659529 159.794922,21.7861328 L159.794922,27.46875 L157.678711,27.46875 L157.678711,11.3769531 L159.300781,11.3769531 L159.633789,12.8808594 C160.013348,12.3222628 160.486,11.8961603 161.051758,11.6025391 C161.617516,11.3089178 162.276363,11.1621094 163.02832,11.1621094 C164.467781,11.1621094 165.586747,11.73323 166.385254,12.8754883 C167.183761,14.0177466 167.583008,15.5270088 167.583008,17.4033203 L167.583008,17.6289062 Z M165.466797,17.4033203 C165.466797,16.0856054 165.207197,15.0024456 164.687988,14.1538086 C164.16878,13.3051715 163.404302,12.8808594 162.394531,12.8808594 C161.785804,12.8808594 161.266604,13.0187161 160.836914,13.2944336 C160.407224,13.5701511 160.059897,13.9479143 159.794922,14.4277344 L159.794922,20.0458984 C160.059897,20.5257185 160.407224,20.899901 160.836914,21.168457 C161.266604,21.4370131 161.792966,21.5712891 162.416016,21.5712891 C163.418625,21.5712891 164.177732,21.204268 164.693359,20.4702148 C165.208987,19.7361617 165.466797,18.7890683 165.466797,17.6289062 L165.466797,17.4033203 Z M175.682617,13.2460938 L174.597656,13.1816406 C174.03906,13.1816406 173.568199,13.3141263 173.185059,13.5791016 C172.801919,13.8440768 172.506511,14.216469 172.298828,14.6962891 L172.298828,23 L170.182617,23 L170.182617,11.3769531 L172.073242,11.3769531 L172.277344,13.0742188 C172.606772,12.4726532 173.013181,12.0035824 173.496582,11.6669922 C173.979983,11.330402 174.536781,11.1621094 175.166992,11.1621094 C175.324545,11.1621094 175.474934,11.1746418 175.618164,11.199707 C175.761394,11.2247723 175.879557,11.2516275 175.972656,11.2802734 L175.682617,13.2460938 Z M180.011719,23 L177.895508,23 L177.895508,11.3769531 L180.011719,11.3769531 L180.011719,23 Z M180.011719,8.40136719 L177.895508,8.40136719 L177.895508,6.2421875 L180.011719,6.2421875 L180.011719,8.40136719 Z M190.023438,19.9169922 C190.023438,19.4514951 189.846193,19.0683609 189.491699,18.7675781 C189.137205,18.4667954 188.465825,18.2054048 187.477539,17.9833984 C186.066725,17.6754542 185.005049,17.2583034 184.29248,16.7319336 C183.579912,16.2055638 183.223633,15.4876348 183.223633,14.578125 C183.223633,13.6328078 183.62467,12.8271518 184.426758,12.1611328 C185.228845,11.4951139 186.274408,11.1621094 187.563477,11.1621094 C188.916999,11.1621094 189.992997,11.5094366 190.791504,12.2041016 C191.590011,12.8987665 191.971354,13.7438101 191.935547,14.7392578 L191.914062,14.8037109 L189.894531,14.8037109 C189.894531,14.2952449 189.68148,13.8387065 189.255371,13.434082 C188.829262,13.0294576 188.265303,12.8271484 187.563477,12.8271484 C186.81152,12.8271484 186.252932,12.9918603 185.887695,13.3212891 C185.522459,13.6507178 185.339844,14.0481748 185.339844,14.5136719 C185.339844,14.9720075 185.500975,15.3336575 185.823242,15.5986328 C186.145509,15.8636081 186.800776,16.0999339 187.789062,16.3076172 C189.257169,16.6227229 190.34928,17.0506158 191.06543,17.5913086 C191.781579,18.1320014 192.139648,18.8570918 192.139648,19.7666016 C192.139648,20.7978567 191.722498,21.6321583 190.888184,22.2695312 C190.05387,22.9069042 188.963548,23.2255859 187.617188,23.2255859 C186.134758,23.2255859 184.967452,22.8496131 184.115234,22.0976562 C183.263017,21.3456994 182.858398,20.4684295 182.901367,19.4658203 L182.922852,19.4013672 L184.942383,19.4013672 C184.97819,20.1533241 185.257484,20.7029605 185.780273,21.050293 C186.303063,21.3976254 186.915361,21.5712891 187.617188,21.5712891 C188.369144,21.5712891 188.958168,21.4191096 189.384277,21.1147461 C189.810386,20.8103826 190.023438,20.4111353 190.023438,19.9169922 Z M199.594727,23.2255859 C197.976229,23.2255859 196.68897,22.6866916 195.73291,21.6088867 C194.776851,20.5310819 194.298828,19.1328211 194.298828,17.4140625 L194.298828,16.9414062 C194.298828,15.2871011 194.791173,13.9103245 195.775879,12.8110352 C196.760584,11.7117458 197.9261,11.1621094 199.272461,11.1621094 C200.840828,11.1621094 202.026038,11.6347609 202.828125,12.5800781 C203.630212,13.5253954 204.03125,14.7857994 204.03125,16.3613281 L204.03125,17.6826172 L196.490234,17.6826172 L196.458008,17.7363281 C196.479492,18.8535212 196.762367,19.7719691 197.306641,20.4916992 C197.850914,21.2114294 198.613602,21.5712891 199.594727,21.5712891 C200.310876,21.5712891 200.939288,21.4692393 201.47998,21.2651367 C202.020673,21.0610341 202.487954,20.7799497 202.881836,20.421875 L203.708984,21.796875 C203.293618,22.2050802 202.745772,22.545246 202.06543,22.8173828 C201.385088,23.0895196 200.561528,23.2255859 199.594727,23.2255859 Z M199.272461,12.8271484 C198.563473,12.8271484 197.958336,13.1261363 197.457031,13.7241211 C196.955727,14.3221059 196.647787,15.0722611 196.533203,15.9746094 L196.554688,16.0283203 L201.915039,16.0283203 L201.915039,15.7490234 C201.915039,14.9182901 201.693036,14.2236356 201.249023,13.6650391 C200.805011,13.1064425 200.146163,12.8271484 199.272461,12.8271484 Z" id="Enterprise" fill="#D9EFFF" opacity="0.900000036"></path>
                <g id="Kogo-4.5x" fill="#FFFFFF">
                    <polygon id="Fill-1" points="11.5197255 26.1503163 10.6561949 27.2395778 12.6058624 30.2748486 12.4030218 31.6796181 20.6728263 31.6796181 21.244409 30.2748486 17.9208692 26.1503163"></polygon>
                    <polygon id="Fill-2" points="16.0419367 7.67885738 13.051496 12.8962034 27.6417615 30.1028531 27.2253875 31.6797472 33.9171829 31.6797472 35.1303381 26.082952 19.5164729 7.67369041"></polygon>
                    <polygon id="Fill-3" points="22.2409849 0.323000095 18.0270202 3.75483573 16.6068121 6.36673812 20.1338406 6.36673812 26.1921642 13.5485009 29.7943668 10.6023602 29.7943668 8.72998016 28.5416804 6.97966971 29.466452 6.02152006"></polygon>
                    <polygon id="Fill-4" points="7.16681826 18.3408991 5.19544099 18.3408991 0 24.9165119 0 31.7252841 5.57390395 31.7252841 6.55667635 30.4487201 10.8584522 24.8993963 17.0768449 24.8993963 18.9915175 21.9771529 12.2478779 14"></polygon>
                    <g id="Group-13" transform="translate(41.696970, 6.789676)">
                        <path d="M18.8590803,15.8711309 C17.6073659,15.8711309 16.9593129,15.670588 16.422725,15.1138472 C15.6181672,14.3116754 15.3051576,13.1978708 15.3051576,9.74472141 C15.3051576,6.26961241 15.6181672,5.1780904 16.422725,4.35363605 C16.936631,3.81917778 17.6073659,3.61863483 18.8590803,3.61863483 L23.0390222,3.61863483 C24.2907366,3.61863483 24.9391136,3.81917778 25.4753775,4.35363605 C26.2802593,5.1780904 26.5932689,6.26961241 26.5932689,9.74472141 C26.5932689,13.2201533 26.2802593,14.3116754 25.4753775,15.1138472 C24.9391136,15.670588 24.2907366,15.8711309 23.0390222,15.8711309 L18.8590803,15.8711309 Z M18.7028995,13.1733277 L23.195851,13.1733277 L23.195851,6.31191697 L18.7028995,6.31191697 L18.7028995,13.1733277 Z" id="Fill-5"></path>
                        <path d="M36.7556798,7.49608918 C36.756976,7.53839373 36.757948,7.58263589 36.757948,7.62849274 L36.757948,15.8710986 L40.1780478,15.8710986 L40.1780478,7.22740684 C40.1780478,5.42316616 39.9765033,4.77697221 39.4625973,4.2867561 C38.9930829,3.81914549 38.322672,3.59631999 37.2718541,3.59631999 L35.7745276,3.59631999 C35.5904805,3.59631999 35.4232829,3.60213283 35.265806,3.61795667 L34.2658602,3.61795667 L32.5426872,5.16740123 L32.5426872,3.83819868 L32.5426872,3.61795667 L31.3878567,3.61795667 L31.3878567,3.61860254 L29.1355485,3.61860254 L29.1355485,15.8710986 L32.5556483,15.8710986 L32.5556483,7.49608918 L32.5550002,7.49608918 L32.5550002,6.35903326 L34.4625443,6.35903326 C34.4751813,6.35871032 34.4874943,6.35871032 34.5004554,6.35871032 L35.461518,6.35871032 C35.4799875,6.35871032 35.498133,6.35871032 35.5159544,6.35903326 L36.7566519,6.35903326 L36.7566519,7.49608918 L36.7556798,7.49608918 Z" id="Fill-7"></path>
                        <polygon id="Fill-9" points="9.95991911 0.230815305 14.029692 0.230815305 8.18360581 7.60343294 14.2769242 15.9174076 9.95991911 15.9174076 5.325368 9.38506814 4.22627009 9.37990117 4.22627009 15.9174076 0.561206284 15.9174076 0.561206284 0.230815305 4.22627009 0.230815305 4.22627009 6.31136798 5.32374787 6.31136798"></polygon>
                        <path d="M46.1939239,13.1776873 L50.6868754,13.1776873 L50.6868754,6.3117555 L46.1939239,6.3117555 L46.1939239,13.1776873 Z M50.6651657,3.61782749 L50.6651657,5.16727206 L48.9419927,3.61782749 L46.3731106,3.59619082 C45.14343,3.59619082 44.4283035,3.81901632 43.8693578,4.35379752 C43.1318734,5.11108128 42.7741482,6.76483402 42.7741482,9.79461495 C42.7741482,12.8017904 43.0647999,14.410978 43.7799264,15.1459792 C44.3388722,15.6807604 45.0037746,15.9261914 46.3225624,15.9261914 L50.6590092,15.9287749 L50.6651657,17.675856 L44.3077656,17.675856 L44.312626,18.3982627 L45.8673052,20.1156338 L50.9104537,20.1259677 C52.1621681,20.1259677 52.8776186,19.9034651 53.3244512,19.4355316 C53.8833969,18.8561853 54.1069752,18.4977269 54.1069752,16.3815305 L54.1069752,3.6187963 L50.6651657,3.61782749 Z" id="Fill-11"></path>
                    </g>
                </g>
            </g>
        </g>
    </g>
</svg>