<svg width="11" height="12" viewBox="0 0 11 12" fill="none" xmlns="http://www.w3.org/2000/svg">
  <path d="M5.66661 2.66667C5.8555 2.66667 6.01384 2.60278 6.14161 2.475C6.26939 2.34722 6.33328 2.18889 6.33328 2C6.33328 1.81111 6.26939 1.65278 6.14161 1.525C6.01384 1.39722 5.8555 1.33333 5.66661 1.33333C5.47773 1.33333 5.31939 1.39722 5.19161 1.525C5.06384 1.65278 4.99995 1.81111 4.99995 2C4.99995 2.18889 5.06384 2.34722 5.19161 2.475C5.31939 2.60278 5.47773 2.66667 5.66661 2.66667ZM7.54995 2.66667H8.71661C9.04995 2.66667 9.33884 2.77778 9.58328 3C9.82773 3.22222 9.97773 3.49444 10.0333 3.81667L10.9833 10.4833C11.0388 10.8833 10.9361 11.2361 10.6749 11.5417C10.4138 11.8472 10.0777 12 9.66661 12H1.66661C1.2555 12 0.919392 11.8472 0.65828 11.5417C0.397169 11.2361 0.294391 10.8833 0.349947 10.4833L1.29995 3.81667C1.3555 3.49444 1.5055 3.22222 1.74995 3C1.99439 2.77778 2.28328 2.66667 2.61661 2.66667H3.78328C3.74995 2.55556 3.72217 2.44722 3.69995 2.34167C3.67772 2.23611 3.66661 2.12222 3.66661 2C3.66661 1.44444 3.86106 0.972222 4.24995 0.583333C4.63884 0.194444 5.11106 0 5.66661 0C6.22217 0 6.69439 0.194444 7.08328 0.583333C7.47217 0.972222 7.66661 1.44444 7.66661 2C7.66661 2.12222 7.6555 2.23611 7.63328 2.34167C7.61106 2.44722 7.58328 2.55556 7.54995 2.66667Z" fill="#6c7489"/>
</svg>
