<svg width="20" height="20" viewBox="0 0 20 20" fill="none" xmlns="http://www.w3.org/2000/svg">
  <path d="M7.70827 18.3333L7.37494 15.6666C7.19438 15.5972 7.02424 15.5138 6.86452 15.4166C6.7048 15.3194 6.54855 15.2152 6.39577 15.1041L3.91661 16.1458L1.62494 12.1875L3.77077 10.5625C3.75688 10.4652 3.74994 10.3715 3.74994 10.2812V9.71871C3.74994 9.62843 3.75688 9.53468 3.77077 9.43746L1.62494 7.81246L3.91661 3.85413L6.39577 4.89579C6.54855 4.78468 6.70827 4.68052 6.87494 4.58329C7.04161 4.48607 7.20827 4.40274 7.37494 4.33329L7.70827 1.66663H12.2916L12.6249 4.33329C12.8055 4.40274 12.9756 4.48607 13.1354 4.58329C13.2951 4.68052 13.4513 4.78468 13.6041 4.89579L16.0833 3.85413L18.3749 7.81246L16.2291 9.43746C16.243 9.53468 16.2499 9.62843 16.2499 9.71871V10.2812C16.2499 10.3715 16.236 10.4652 16.2083 10.5625L18.3541 12.1875L16.0624 16.1458L13.6041 15.1041C13.4513 15.2152 13.2916 15.3194 13.1249 15.4166C12.9583 15.5138 12.7916 15.5972 12.6249 15.6666L12.2916 18.3333H7.70827ZM10.0416 12.9166C10.8472 12.9166 11.5347 12.6319 12.1041 12.0625C12.6735 11.493 12.9583 10.8055 12.9583 9.99996C12.9583 9.1944 12.6735 8.5069 12.1041 7.93746C11.5347 7.36802 10.8472 7.08329 10.0416 7.08329C9.22216 7.08329 8.53119 7.36802 7.96869 7.93746C7.40619 8.5069 7.12494 9.1944 7.12494 9.99996C7.12494 10.8055 7.40619 11.493 7.96869 12.0625C8.53119 12.6319 9.22216 12.9166 10.0416 12.9166Z" fill="currentColor"/>
</svg>
