<svg width="20" height="20" viewBox="0 0 20 20" fill="none" xmlns="http://www.w3.org/2000/svg">
  <path d="M10 18.3334C8.86113 18.3334 7.78474 18.1146 6.77085 17.6771C5.75697 17.2396 4.87155 16.6424 4.1146 15.8854C3.35766 15.1285 2.76044 14.2431 2.32294 13.2292C1.88544 12.2153 1.66669 11.1389 1.66669 10C1.66669 8.84724 1.88544 7.76738 2.32294 6.76044C2.76044 5.75349 3.35766 4.87155 4.1146 4.1146C4.87155 3.35766 5.75697 2.76044 6.77085 2.32294C7.78474 1.88544 8.86113 1.66669 10 1.66669C11.1528 1.66669 12.2327 1.88544 13.2396 2.32294C14.2465 2.76044 15.1285 3.35766 15.8854 4.1146C16.6424 4.87155 17.2396 5.75349 17.6771 6.76044C18.1146 7.76738 18.3334 8.84724 18.3334 10C18.3334 11.1389 18.1146 12.2153 17.6771 13.2292C17.2396 14.2431 16.6424 15.1285 15.8854 15.8854C15.1285 16.6424 14.2465 17.2396 13.2396 17.6771C12.2327 18.1146 11.1528 18.3334 10 18.3334ZM10 16.625C10.3611 16.125 10.6736 15.6042 10.9375 15.0625C11.2014 14.5209 11.4167 13.9445 11.5834 13.3334H8.41669C8.58335 13.9445 8.79863 14.5209 9.06252 15.0625C9.32641 15.6042 9.63891 16.125 10 16.625ZM7.83335 16.2917C7.58335 15.8334 7.3646 15.3577 7.1771 14.8646C6.9896 14.3715 6.83335 13.8611 6.70835 13.3334H4.25002C4.6528 14.0278 5.15627 14.632 5.76044 15.1459C6.3646 15.6597 7.05558 16.0417 7.83335 16.2917ZM12.1667 16.2917C12.9445 16.0417 13.6354 15.6597 14.2396 15.1459C14.8438 14.632 15.3472 14.0278 15.75 13.3334H13.2917C13.1667 13.8611 13.0104 14.3715 12.8229 14.8646C12.6354 15.3577 12.4167 15.8334 12.1667 16.2917ZM3.54169 11.6667H6.37502C6.33335 11.3889 6.3021 11.1146 6.28127 10.8438C6.26044 10.5729 6.25002 10.2917 6.25002 10C6.25002 9.70835 6.26044 9.4271 6.28127 9.15627C6.3021 8.88544 6.33335 8.61113 6.37502 8.33335H3.54169C3.47224 8.61113 3.42016 8.88544 3.38544 9.15627C3.35071 9.4271 3.33335 9.70835 3.33335 10C3.33335 10.2917 3.35071 10.5729 3.38544 10.8438C3.42016 11.1146 3.47224 11.3889 3.54169 11.6667ZM8.04169 11.6667H11.9584C12 11.3889 12.0313 11.1146 12.0521 10.8438C12.0729 10.5729 12.0834 10.2917 12.0834 10C12.0834 9.70835 12.0729 9.4271 12.0521 9.15627C12.0313 8.88544 12 8.61113 11.9584 8.33335H8.04169C8.00002 8.61113 7.96877 8.88544 7.94794 9.15627C7.9271 9.4271 7.91669 9.70835 7.91669 10C7.91669 10.2917 7.9271 10.5729 7.94794 10.8438C7.96877 11.1146 8.00002 11.3889 8.04169 11.6667ZM13.625 11.6667H16.4584C16.5278 11.3889 16.5799 11.1146 16.6146 10.8438C16.6493 10.5729 16.6667 10.2917 16.6667 10C16.6667 9.70835 16.6493 9.4271 16.6146 9.15627C16.5799 8.88544 16.5278 8.61113 16.4584 8.33335H13.625C13.6667 8.61113 13.6979 8.88544 13.7188 9.15627C13.7396 9.4271 13.75 9.70835 13.75 10C13.75 10.2917 13.7396 10.5729 13.7188 10.8438C13.6979 11.1146 13.6667 11.3889 13.625 11.6667ZM13.2917 6.66669H15.75C15.3472 5.97224 14.8438 5.36808 14.2396 4.85419C13.6354 4.3403 12.9445 3.95835 12.1667 3.70835C12.4167 4.16669 12.6354 4.64238 12.8229 5.13544C13.0104 5.62849 13.1667 6.13891 13.2917 6.66669ZM8.41669 6.66669H11.5834C11.4167 6.05558 11.2014 5.47919 10.9375 4.93752C10.6736 4.39585 10.3611 3.87502 10 3.37502C9.63891 3.87502 9.32641 4.39585 9.06252 4.93752C8.79863 5.47919 8.58335 6.05558 8.41669 6.66669ZM4.25002 6.66669H6.70835C6.83335 6.13891 6.9896 5.62849 7.1771 5.13544C7.3646 4.64238 7.58335 4.16669 7.83335 3.70835C7.05558 3.95835 6.3646 4.3403 5.76044 4.85419C5.15627 5.36808 4.6528 5.97224 4.25002 6.66669Z" fill="currentColor"/>
</svg>
