<svg width="20" height="20" viewBox="0 0 20 20" fill="none" xmlns="http://www.w3.org/2000/svg">
  <path d="M0.833313 16.6666V14.3333C0.833313 13.8611 0.954841 13.4271 1.1979 13.0312C1.44095 12.6354 1.76387 12.3333 2.16665 12.125C3.02776 11.6944 3.90276 11.3715 4.79165 11.1562C5.68053 10.941 6.58331 10.8333 7.49998 10.8333C8.41665 10.8333 9.31942 10.941 10.2083 11.1562C11.0972 11.3715 11.9722 11.6944 12.8333 12.125C13.2361 12.3333 13.559 12.6354 13.8021 13.0312C14.0451 13.4271 14.1666 13.8611 14.1666 14.3333V16.6666H0.833313ZM15.8333 16.6666V14.1666C15.8333 13.5555 15.6632 12.9687 15.3229 12.4062C14.9826 11.8437 14.5 11.3611 13.875 10.9583C14.5833 11.0416 15.25 11.184 15.875 11.3854C16.5 11.5868 17.0833 11.8333 17.625 12.125C18.125 12.4028 18.5069 12.7118 18.7708 13.0521C19.0347 13.3923 19.1666 13.7639 19.1666 14.1666V16.6666H15.8333ZM7.49998 9.99998C6.58331 9.99998 5.79859 9.67359 5.14581 9.02081C4.49304 8.36804 4.16665 7.58331 4.16665 6.66665C4.16665 5.74998 4.49304 4.96526 5.14581 4.31248C5.79859 3.6597 6.58331 3.33331 7.49998 3.33331C8.41665 3.33331 9.20137 3.6597 9.85415 4.31248C10.5069 4.96526 10.8333 5.74998 10.8333 6.66665C10.8333 7.58331 10.5069 8.36804 9.85415 9.02081C9.20137 9.67359 8.41665 9.99998 7.49998 9.99998ZM15.8333 6.66665C15.8333 7.58331 15.5069 8.36804 14.8541 9.02081C14.2014 9.67359 13.4166 9.99998 12.5 9.99998C12.3472 9.99998 12.1528 9.98262 11.9166 9.9479C11.6805 9.91317 11.4861 9.87498 11.3333 9.83331C11.7083 9.38887 11.9965 8.89581 12.1979 8.35415C12.3993 7.81248 12.5 7.24998 12.5 6.66665C12.5 6.08331 12.3993 5.52081 12.1979 4.97915C11.9965 4.43748 11.7083 3.94442 11.3333 3.49998C11.5278 3.43054 11.7222 3.3854 11.9166 3.36456C12.1111 3.34373 12.3055 3.33331 12.5 3.33331C13.4166 3.33331 14.2014 3.6597 14.8541 4.31248C15.5069 4.96526 15.8333 5.74998 15.8333 6.66665Z" fill="currentColor"/>
</svg>
