<svg width="20" height="20" viewBox="0 0 20 20" xmlns="http://www.w3.org/2000/svg">
  <path d="M5 16.6666C4.30556 16.6666 3.71528 16.4236 3.22917 15.9375C2.74306 15.4514 2.5 14.8611 2.5 14.1666C2.5 13.4722 2.74306 12.8819 3.22917 12.3958C3.71528 11.9097 4.30556 11.6666 5 11.6666C5.69444 11.6666 6.28472 11.9097 6.77083 12.3958C7.25694 12.8819 7.5 13.4722 7.5 14.1666C7.5 14.8611 7.25694 15.4514 6.77083 15.9375C6.28472 16.4236 5.69444 16.6666 5 16.6666ZM15 16.6666C14.3056 16.6666 13.7153 16.4236 13.2292 15.9375C12.7431 15.4514 12.5 14.8611 12.5 14.1666C12.5 13.4722 12.7431 12.8819 13.2292 12.3958C13.7153 11.9097 14.3056 11.6666 15 11.6666C15.6944 11.6666 16.2847 11.9097 16.7708 12.3958C17.2569 12.8819 17.5 13.4722 17.5 14.1666C17.5 14.8611 17.2569 15.4514 16.7708 15.9375C16.2847 16.4236 15.6944 16.6666 15 16.6666ZM10 8.33331C9.30556 8.33331 8.71528 8.09026 8.22917 7.60415C7.74306 7.11804 7.5 6.52776 7.5 5.83331C7.5 5.13887 7.74306 4.54859 8.22917 4.06248C8.71528 3.57637 9.30556 3.33331 10 3.33331C10.6944 3.33331 11.2847 3.57637 11.7708 4.06248C12.2569 4.54859 12.5 5.13887 12.5 5.83331C12.5 6.52776 12.2569 7.11804 11.7708 7.60415C11.2847 8.09026 10.6944 8.33331 10 8.33331Z"  fill="currentColor" />
</svg>
